<?xml version="1.0" encoding="UTF-8" standalone="no"?>
<!-- Created with Inkscape (http://www.inkscape.org/) -->
<svg xmlns:rdf="http://www.w3.org/1999/02/22-rdf-syntax-ns#" xmlns="http://www.w3.org/2000/svg" viewBox="0 0 236.53648 99.999995" height="28.222mm" width="66.756mm" version="1.1" xmlns:cc="http://creativecommons.org/ns#" xmlns:dc="http://purl.org/dc/elements/1.1/">
 <defs>
  <filter id="a" style="color-interpolation-filters:sRGB">
   <feFlood result="flood" flood-opacity=".49804" flood-color="rgb(0,0,0)"/>
   <feComposite operator="in" result="composite1" in2="SourceGraphic" in="flood"/>
   <feGaussianBlur stdDeviation="3" result="blur" in="composite1"/>
   <feOffset result="offset" dx="6" dy="6"/>
   <feComposite operator="over" result="composite2" in2="offset" in="SourceGraphic"/>
  </filter>
  <filter id="b" style="color-interpolation-filters:sRGB">
   <feFlood result="flood" flood-opacity=".49804" flood-color="rgb(0,0,0)"/>
   <feComposite operator="in" result="composite1" in2="SourceGraphic" in="flood"/>
   <feGaussianBlur stdDeviation="3" result="blur" in="composite1"/>
   <feOffset result="offset" dx="3" dy="3"/>
   <feComposite operator="over" result="composite2" in2="offset" in="SourceGraphic"/>
  </filter>
 </defs>
 <g transform="translate(-314.8 -355.43)">
  <g style="image-rendering:auto" fill-rule="evenodd" transform="matrix(.31186 0 0 .31186 319.84 153.4)" filter="url(#a)" fill="#f00">
   <circle cy="763.26" cx="193.78" r="4.0273"/>
   <circle cy="773.54" cx="193.78" r="4.0273"/>
   <circle cy="784.63" cx="193.78" r="4.0273"/>
   <circle cy="796.05" cx="193.78" r="4.0273"/>
   <circle cy="806.57" cx="193.78" r="4.0273"/>
   <circle cy="818.31" cx="193.78" r="4.0273"/>
   <circle cy="829.41" cx="193.78" r="4.0273"/>
   <circle cy="840.66" cx="193.78" r="4.0273"/>
   <circle cy="851.59" cx="193.78" r="4.0273"/>
   <circle cy="862.27" cx="193.78" r="4.0273"/>
   <circle cy="763.26" cx="205.85" r="4.0273"/>
   <circle cy="773.54" cx="205.85" r="4.0273"/>
   <circle cy="784.63" cx="205.85" r="4.0273"/>
   <circle cy="796.05" cx="205.85" r="4.0273"/>
   <circle cy="806.57" cx="205.85" r="4.0273"/>
   <circle cy="818.31" cx="205.85" r="4.0273"/>
   <circle cy="829.41" cx="205.85" r="4.0273"/>
   <circle cy="840.66" cx="205.85" r="4.0273"/>
   <circle cy="851.59" cx="205.85" r="4.0273"/>
   <circle cy="862.27" cx="205.85" r="4.0273"/>
   <circle cy="763.26" cx="216.62" r="4.0273"/>
   <circle cy="773.54" cx="216.62" r="4.0273"/>
   <circle cy="784.63" cx="216.62" r="4.0273"/>
   <circle cy="796.05" cx="216.62" r="4.0273"/>
   <circle cy="806.57" cx="216.62" r="4.0273"/>
   <circle cy="818.31" cx="216.62" r="4.0273"/>
   <circle cy="829.41" cx="216.62" r="4.0273"/>
   <circle cy="840.66" cx="216.62" r="4.0273"/>
   <circle cy="851.59" cx="216.62" r="4.0273"/>
   <circle cy="862.27" cx="216.62" r="4.0273"/>
   <circle cy="763.26" cx="262.26" r="4.0273"/>
   <circle cy="773.54" cx="262.26" r="4.0273"/>
   <circle cy="784.63" cx="262.26" r="4.0273"/>
   <circle cy="796.05" cx="262.26" r="4.0273"/>
   <circle cy="806.57" cx="262.26" r="4.0273"/>
   <circle cy="818.31" cx="262.26" r="4.0273"/>
   <circle cy="829.41" cx="262.26" r="4.0273"/>
   <circle cy="840.66" cx="262.26" r="4.0273"/>
   <circle cy="851.59" cx="262.26" r="4.0273"/>
   <circle cy="862.27" cx="262.26" r="4.0273"/>
   <circle cy="763.26" cx="274.33" r="4.0273"/>
   <circle cy="773.54" cx="274.33" r="4.0273"/>
   <circle cy="784.63" cx="274.33" r="4.0273"/>
   <circle cy="796.05" cx="274.33" r="4.0273"/>
   <circle cy="806.57" cx="274.33" r="4.0273"/>
   <circle cy="818.31" cx="274.33" r="4.0273"/>
   <circle cy="829.41" cx="274.33" r="4.0273"/>
   <circle cy="840.66" cx="274.33" r="4.0273"/>
   <circle cy="851.59" cx="274.33" r="4.0273"/>
   <circle cy="862.27" cx="274.33" r="4.0273"/>
   <circle cy="763.26" cx="285.09" r="4.0273"/>
   <circle cy="773.54" cx="285.09" r="4.0273"/>
   <circle cy="784.63" cx="285.09" r="4.0273"/>
   <circle cy="796.05" cx="285.09" r="4.0273"/>
   <circle cy="806.57" cx="285.09" r="4.0273"/>
   <circle cy="818.31" cx="285.09" r="4.0273"/>
   <circle cy="829.41" cx="285.09" r="4.0273"/>
   <circle cy="840.66" cx="285.09" r="4.0273"/>
   <circle cy="851.59" cx="285.09" r="4.0273"/>
   <circle cy="862.27" cx="285.09" r="4.0273"/>
   <circle cy="762.97" cx="390.5" r="4.0273"/>
   <circle cy="773.68" cx="390.5" r="4.0273"/>
   <circle cy="784.77" cx="390.5" r="4.0273"/>
   <circle cy="796.19" cx="390.5" r="4.0273"/>
   <circle cy="806.63" cx="390.5" r="4.0273"/>
   <circle cy="818.37" cx="390.5" r="4.0273"/>
   <circle cy="829.14" cx="390.5" r="4.0273"/>
   <circle cy="840.55" cx="390.5" r="4.0273"/>
   <circle cy="851.65" cx="390.5" r="4.0273"/>
   <circle cy="862.41" cx="390.5" r="4.0273"/>
   <circle cy="762.97" cx="402.57" r="4.0273"/>
   <circle cy="773.68" cx="402.57" r="4.0273"/>
   <circle cy="784.77" cx="402.57" r="4.0273"/>
   <circle cy="796.19" cx="402.57" r="4.0273"/>
   <circle cy="806.63" cx="402.57" r="4.0273"/>
   <circle cy="818.37" cx="402.57" r="4.0273"/>
   <circle cy="829.14" cx="402.57" r="4.0273"/>
   <circle cy="840.55" cx="402.57" r="4.0273"/>
   <circle cy="851.65" cx="402.57" r="4.0273"/>
   <circle cy="862.41" cx="402.57" r="4.0273"/>
   <circle cy="762.97" cx="413.34" r="4.0273"/>
   <circle cy="773.68" cx="413.34" r="4.0273"/>
   <circle cy="784.77" cx="413.34" r="4.0273"/>
   <circle cy="796.19" cx="413.34" r="4.0273"/>
   <circle cy="806.63" cx="413.34" r="4.0273"/>
   <circle cy="818.37" cx="413.34" r="4.0273"/>
   <circle cy="829.14" cx="413.34" r="4.0273"/>
   <circle cy="840.55" cx="413.34" r="4.0273"/>
   <circle cy="851.65" cx="413.34" r="4.0273"/>
   <circle cy="862.41" cx="413.34" r="4.0273"/>
   <circle cy="762.97" cx="447.59" r="4.0273"/>
   <circle cy="773.68" cx="447.59" r="4.0273"/>
   <circle cy="784.77" cx="447.59" r="4.0273"/>
   <circle cy="796.19" cx="447.59" r="4.0273"/>
   <circle cy="806.63" cx="447.59" r="4.0273"/>
   <circle cy="818.37" cx="447.59" r="4.0273"/>
   <circle cy="829.14" cx="447.59" r="4.0273"/>
   <circle cy="840.55" cx="447.59" r="4.0273"/>
   <circle cy="851.65" cx="447.59" r="4.0273"/>
   <circle cy="862.41" cx="447.59" r="4.0273"/>
   <circle cy="762.97" cx="459.67" r="4.0273"/>
   <circle cy="773.68" cx="459.67" r="4.0273"/>
   <circle cy="784.77" cx="459.67" r="4.0273"/>
   <circle cy="796.19" cx="459.67" r="4.0273"/>
   <circle cy="806.63" cx="459.67" r="4.0273"/>
   <circle cy="818.37" cx="459.67" r="4.0273"/>
   <circle cy="829.14" cx="459.67" r="4.0273"/>
   <circle cy="840.55" cx="459.67" r="4.0273"/>
   <circle cy="851.65" cx="459.67" r="4.0273"/>
   <circle cy="862.41" cx="459.67" r="4.0273"/>
   <circle cy="762.97" cx="470.43" r="4.0273"/>
   <circle cy="773.68" cx="470.43" r="4.0273"/>
   <circle cy="784.77" cx="470.43" r="4.0273"/>
   <circle cy="796.19" cx="470.43" r="4.0273"/>
   <circle cy="806.63" cx="470.43" r="4.0273"/>
   <circle cy="818.37" cx="470.43" r="4.0273"/>
   <circle cy="829.14" cx="470.43" r="4.0273"/>
   <circle cy="840.55" cx="470.43" r="4.0273"/>
   <circle cy="851.65" cx="470.43" r="4.0273"/>
   <circle cy="862.41" cx="470.43" r="4.0273"/>
   <circle cy="763.05" cx="596.68" r="4.0273"/>
   <circle cy="774.02" cx="596.68" r="4.0273"/>
   <circle cy="784.83" cx="596.68" r="4.0273"/>
   <circle cy="796.41" cx="596.68" r="4.0273"/>
   <circle cy="806.93" cx="596.68" r="4.0273"/>
   <circle cy="818.51" cx="596.68" r="4.0273"/>
   <circle cy="829.2" cx="596.68" r="4.0273"/>
   <circle cy="840.78" cx="596.68" r="4.0273"/>
   <circle cy="851.54" cx="596.68" r="4.0273"/>
   <circle cy="862.64" cx="596.68" r="4.0273"/>
   <circle cy="763.05" cx="608.76" r="4.0273"/>
   <circle cy="774.02" cx="608.76" r="4.0273"/>
   <circle cy="784.83" cx="608.76" r="4.0273"/>
   <circle cy="796.41" cx="608.76" r="4.0273"/>
   <circle cy="806.93" cx="608.76" r="4.0273"/>
   <circle cy="818.51" cx="608.76" r="4.0273"/>
   <circle cy="829.2" cx="608.76" r="4.0273"/>
   <circle cy="840.78" cx="608.76" r="4.0273"/>
   <circle cy="851.54" cx="608.76" r="4.0273"/>
   <circle cy="862.64" cx="608.76" r="4.0273"/>
   <circle cy="763.05" cx="619.52" r="4.0273"/>
   <circle cy="774.02" cx="619.52" r="4.0273"/>
   <circle cy="784.83" cx="619.52" r="4.0273"/>
   <circle cy="796.41" cx="619.52" r="4.0273"/>
   <circle cy="806.93" cx="619.52" r="4.0273"/>
   <circle cy="818.51" cx="619.52" r="4.0273"/>
   <circle cy="829.2" cx="619.52" r="4.0273"/>
   <circle cy="840.78" cx="619.52" r="4.0273"/>
   <circle cy="851.54" cx="619.52" r="4.0273"/>
   <circle cy="862.64" cx="619.52" r="4.0273"/>
   <circle cy="762.97" cx="425.08" r="4.0273"/>
   <circle cy="762.97" cx="435.85" r="4.0273"/>
   <circle cy="773.68" cx="425.08" r="4.0273"/>
   <circle cy="773.68" cx="435.85" r="4.0273"/>
   <circle cy="762.42" cx="493.76" r="4.0273"/>
   <circle cy="773.84" cx="493.76" r="4.0273"/>
   <circle cy="762.42" cx="505.5" r="4.0273"/>
   <circle cy="773.84" cx="505.5" r="4.0273"/>
   <circle cy="762.42" cx="516.59" r="4.0273"/>
   <circle cy="773.84" cx="516.59" r="4.0273"/>
   <circle cy="762.42" cx="528.01" r="4.0273"/>
   <circle cy="773.84" cx="528.01" r="4.0273"/>
   <circle cy="762.42" cx="539.59" r="4.0273"/>
   <circle cy="773.84" cx="539.59" r="4.0273"/>
   <circle cy="762.42" cx="550.69" r="4.0273"/>
   <circle cy="773.84" cx="550.69" r="4.0273"/>
   <circle cy="807.2" cx="516.59" r="4.0273"/>
   <circle cy="818.29" cx="516.59" r="4.0273"/>
   <circle cy="807.2" cx="528.01" r="4.0273"/>
   <circle cy="818.29" cx="528.01" r="4.0273"/>
   <circle cy="807.2" cx="539.59" r="4.0273"/>
   <circle cy="818.29" cx="539.59" r="4.0273"/>
   <circle cy="850.99" cx="493.76" r="4.0273"/>
   <circle cy="862.17" cx="493.76" r="4.0273"/>
   <circle cy="850.99" cx="505.5" r="4.0273"/>
   <circle cy="862.17" cx="505.5" r="4.0273"/>
   <circle cy="850.99" cx="516.59" r="4.0273"/>
   <circle cy="862.17" cx="516.59" r="4.0273"/>
   <circle cy="850.99" cx="528.01" r="4.0273"/>
   <circle cy="862.17" cx="528.01" r="4.0273"/>
   <circle cy="850.99" cx="539.59" r="4.0273"/>
   <circle cy="862.17" cx="539.59" r="4.0273"/>
   <circle cy="850.99" cx="550.69" r="4.0273"/>
   <circle cy="862.17" cx="550.69" r="4.0273"/>
   <circle cy="784.85" cx="550.69" r="4.0273"/>
   <circle cy="795.94" cx="550.69" r="4.0273"/>
   <circle cy="784.85" cx="562.27" r="4.0273"/>
   <circle cy="795.94" cx="562.27" r="4.0273"/>
   <circle cy="784.85" cx="573.36" r="4.0273"/>
   <circle cy="795.94" cx="573.36" r="4.0273"/>
   <circle cy="807.2" cx="550.69" r="4.0273"/>
   <circle cy="818.29" cx="550.69" r="4.0273"/>
   <circle cy="807.2" cx="562.27" r="4.0273"/>
   <circle cy="818.29" cx="562.27" r="4.0273"/>
   <circle cy="807.2" cx="573.36" r="4.0273"/>
   <circle cy="818.29" cx="573.36" r="4.0273"/>
   <circle cy="829.22" cx="550.69" r="4.0273"/>
   <circle cy="840.31" cx="550.69" r="4.0273"/>
   <circle cy="829.22" cx="562.27" r="4.0273"/>
   <circle cy="840.31" cx="562.27" r="4.0273"/>
   <circle cy="829.22" cx="573.36" r="4.0273"/>
   <circle cy="840.31" cx="573.36" r="4.0273"/>
   <circle cy="763.05" cx="665.03" r="4.0273"/>
   <circle cy="763.05" cx="676.61" r="4.0273"/>
   <circle cy="763.05" cx="688.03" r="4.0273"/>
   <circle cy="774.02" cx="653.78" r="4.0273"/>
   <circle cy="774.02" cx="665.03" r="4.0273"/>
   <circle cy="774.02" cx="676.61" r="4.0273"/>
   <circle cy="784.83" cx="642.19" r="4.0273"/>
   <circle cy="784.83" cx="653.78" r="4.0273"/>
   <circle cy="784.83" cx="665.03" r="4.0273"/>
   <circle cy="796.41" cx="631.1" r="4.0273"/>
   <circle cy="796.41" cx="642.19" r="4.0273"/>
   <circle cy="796.41" cx="653.78" r="4.0273"/>
   <circle cy="829.2" cx="631.1" r="4.0273"/>
   <circle cy="829.2" cx="642.19" r="4.0273"/>
   <circle cy="829.2" cx="653.78" r="4.0273"/>
   <circle cy="840.78" cx="642.19" r="4.0273"/>
   <circle cy="840.78" cx="653.78" r="4.0273"/>
   <circle cy="840.78" cx="665.03" r="4.0273"/>
   <circle cy="851.54" cx="653.78" r="4.0273"/>
   <circle cy="851.54" cx="665.03" r="4.0273"/>
   <circle cy="851.54" cx="676.61" r="4.0273"/>
   <circle cy="862.64" cx="665.03" r="4.0273"/>
   <circle cy="862.64" cx="676.61" r="4.0273"/>
   <circle cy="862.64" cx="688.03" r="4.0273"/>
   <circle cy="806.93" cx="642.19" r="4.0273"/>
   <circle cy="818.51" cx="642.19" r="4.0273"/>
   <circle cy="806.93" cx="631.1" r="4.0273"/>
   <circle cy="818.51" cx="631.1" r="4.0273"/>
   <circle cy="850.99" cx="562.27" r="4.0273"/>
   <circle cy="773.84" cx="562.27" r="4.0273"/>
   <circle cy="829.41" cx="228.36" r="4.0273"/>
   <circle cy="840.66" cx="228.36" r="4.0273"/>
   <circle cy="851.59" cx="228.36" r="4.0273"/>
   <circle cy="818.31" cx="239.46" r="4.0273"/>
   <circle cy="829.41" cx="239.46" r="4.0273"/>
   <circle cy="840.66" cx="239.46" r="4.0273"/>
   <circle cy="806.57" cx="251.2" r="4.0273"/>
   <circle cy="818.31" cx="251.2" r="4.0273"/>
   <circle cy="829.41" cx="251.2" r="4.0273"/>
   <circle cy="783.3" cx="306.5" r="3.2218"/>
   <circle cy="791.78" cx="306.5" r="3.2218"/>
   <circle cy="800.67" cx="306.5" r="3.2218"/>
   <circle cy="809.89" cx="306.5" r="3.2218"/>
   <circle cy="819.19" cx="306.5" r="3.2218"/>
   <circle cy="827.83" cx="306.5" r="3.2218"/>
   <circle cy="836.88" cx="306.5" r="3.2218"/>
   <circle cy="845.45" cx="306.5" r="3.2218"/>
   <circle cy="854.42" cx="306.5" r="3.2218"/>
   <circle cy="863.15" cx="306.5" r="3.2218"/>
   <circle cy="783.3" cx="315.47" r="3.2218"/>
   <circle cy="791.78" cx="315.47" r="3.2218"/>
   <circle cy="800.67" cx="315.47" r="3.2218"/>
   <circle cy="809.89" cx="315.47" r="3.2218"/>
   <circle cy="819.19" cx="315.47" r="3.2218"/>
   <circle cy="827.83" cx="315.47" r="3.2218"/>
   <circle cy="836.88" cx="315.47" r="3.2218"/>
   <circle cy="845.45" cx="315.47" r="3.2218"/>
   <circle cy="854.42" cx="315.47" r="3.2218"/>
   <circle cy="863.15" cx="315.47" r="3.2218"/>
   <circle cy="783.3" cx="325.26" r="3.2218"/>
   <circle cy="791.78" cx="325.26" r="3.2218"/>
   <circle cy="800.67" cx="325.26" r="3.2218"/>
   <circle cy="809.89" cx="325.26" r="3.2218"/>
   <circle cy="819.19" cx="325.26" r="3.2218"/>
   <circle cy="827.83" cx="325.26" r="3.2218"/>
   <circle cy="836.88" cx="325.26" r="3.2218"/>
   <circle cy="845.45" cx="325.26" r="3.2218"/>
   <circle cy="854.42" cx="325.26" r="3.2218"/>
   <circle cy="863.15" cx="325.26" r="3.2218"/>
   <circle cy="791.78" cx="352.01" r="3.2218"/>
   <circle cy="800.67" cx="352.01" r="3.2218"/>
   <circle cy="809.89" cx="352.01" r="3.2218"/>
   <circle cy="819.19" cx="352.01" r="3.2218"/>
   <circle cy="827.83" cx="352.01" r="3.2218"/>
   <circle cy="836.88" cx="352.01" r="3.2218"/>
   <circle cy="845.45" cx="352.01" r="3.2218"/>
   <circle cy="854.42" cx="352.01" r="3.2218"/>
   <circle cy="783.3" cx="334.39" r="3.2218"/>
   <circle cy="783.3" cx="342.87" r="3.2218"/>
   <circle cy="791.78" cx="334.39" r="3.2218"/>
   <circle cy="791.78" cx="342.87" r="3.2218"/>
   <circle cy="800.67" cx="342.87" r="3.2218"/>
   <circle cy="809.89" cx="342.87" r="3.2218"/>
   <circle cy="819.19" cx="342.87" r="3.2218"/>
   <circle cy="827.83" cx="342.87" r="3.2218"/>
   <circle cy="819.19" cx="334.39" r="3.2218"/>
   <circle cy="827.83" cx="334.39" r="3.2218"/>
   <circle cy="854.42" cx="334.39" r="3.2218"/>
   <circle cy="863.15" cx="334.39" r="3.2218"/>
   <circle cy="854.42" cx="342.87" r="3.2218"/>
   <circle cy="863.15" cx="342.87" r="3.2218"/>
   <circle cy="863.15" cx="352.01" r="3.2218"/>
   <circle cy="854.42" cx="360.98" r="3.2218"/>
   <circle cy="845.45" cx="360.98" r="3.2218"/>
   <circle cy="836.88" cx="360.98" r="3.2218"/>
   <circle cy="827.83" cx="360.98" r="3.2218"/>
   <circle cy="845.45" cx="370.44" r="3.2218"/>
   <circle cy="836.88" cx="370.44" r="3.2218"/>
   <circle cy="827.83" cx="370.44" r="3.2218"/>
   <circle cy="809.89" cx="360.98" r="3.2218"/>
   <circle cy="800.67" cx="360.98" r="3.2218"/>
  </g>
  <g filter="url(#b)">
   <path style="color-rendering:auto;color:#000000;isolation:auto;mix-blend-mode:normal;shape-rendering:auto;solid-color:#000000;image-rendering:auto" d="m474.21 363.77a142.57 41.735 0 0 0 -81.131 7.4297 10.006 10.006 0 0 1 0.98242 4.291 142.57 41.735 0 0 1 96.744 -11.133 142.57 41.735 0 0 1 9.3301 0.13671 142.57 41.735 0 0 0 -25.926 -0.72461zm-100.15 12.08a142.57 41.735 0 0 0 -42.416 29.654 142.57 41.735 0 0 0 133.23 41.598 142.57 41.735 0 0 1 -116.64 -41.008 142.57 41.735 0 0 1 27.768 -24.67 10.006 10.006 0 0 1 -1.9453 -5.5742z" fill-rule="evenodd" transform="translate(0 -.0000038147)" fill="#f00"/>
   <g transform="translate(314.8 355.43)" stroke="#a00" stroke-width=".5" fill="none">
    <g style="image-rendering:auto" transform="matrix(.31186 0 0 .31186 69.26 20.062)">
     <path transform="rotate(2.2968)" d="m4.596e-8 30a1.7152 30 0 0 1 -1.4854 -15 1.7152 30 0 0 1 0 -30 1.7152 30 0 0 1 1.4854 -15"/>
     <path transform="rotate(14.325)" d="m2.6785e-7 30a9.9964 30 0 0 1 -8.6571 -15 9.9964 30 0 0 1 0 -30 9.9964 30 0 0 1 8.6571 -15"/>
     <path transform="matrix(.87477 .48453 -.48453 .87477 0 0)" d="m4.5744e-7 30a17.072 30 0 0 1 -14.785 -15 17.072 30 0 0 1 0 -30 17.072 30 0 0 1 14.785 -15"/>
     <path transform="matrix(.64780 .76181 -.76181 .64780 0 0)" d="m5.9186e-7 30a22.088 30 0 0 1 -19.129 -15 22.088 30 0 0 1 0 -30 22.088 30 0 0 1 19.129 -15"/>
     <path transform="rotate(79.615)" d="m6.5489e-7 30a24.441 30 0 0 1 -21.166 -15 24.441 30 0 0 1 0 -30 24.441 30 0 0 1 21.166 -15"/>
     <path transform="matrix(.39865 -.91710 .91710 .39865 0 0)" d="m4.6774e-7 -30a23.846 30 0 0 1 23.846 30 23.846 30 0 0 1 -23.846 30"/>
     <path transform="rotate(-40.377)" d="m3.9965e-7 -30a20.374 30 0 0 1 20.374 30 20.374 30 0 0 1 -20.374 30"/>
     <path transform="rotate(-22.623)" d="m2.8335e-7 -30a14.446 30 0 0 1 14.446 30 14.446 30 0 0 1 -14.446 30"/>
     <path transform="rotate(-9.3398)" d="m1.3289e-7 -30a6.7747 30 0 0 1 6.7747 30 6.7747 30 0 0 1 -6.7747 30"/>
    </g>
    <path style="image-rendering:auto" transform="matrix(.31186 0 0 .31186 69.26 20.062)" d="m18.022 23.984a22.672 13.005 0 0 1 -18.022 5.114 22.672 13.005 0 0 1 -18.022 -5.114"/>
    <path style="image-rendering:auto" transform="matrix(.31186 0 0 .31186 69.26 20.062)" d="m25.856 15.214a27.289 15.653 0 0 1 -25.856 10.648 27.289 15.653 0 0 1 -25.856 -10.648"/>
    <path style="image-rendering:auto" transform="matrix(.31186 0 0 .31186 69.26 20.062)" d="m29.544 5.2121a29.695 17.033 0 0 1 -29.544 15.318 29.695 17.033 0 0 1 -29.544 -15.318"/>
    <path style="image-rendering:auto" transform="matrix(.31186 0 0 .31186 69.26 20.062)" d="m29.544-5.2121a29.695 17.033 0 0 1 -13.841 16.171 29.695 17.033 0 0 1 -31.406 0.000001 29.695 17.033 0 0 1 -13.841 -16.171"/>
    <path style="image-rendering:auto" transform="matrix(.31186 0 0 .31186 69.26 20.062)" d="m25.856-15.214a27.289 15.653 0 0 1 -9.7328 17.634 27.289 15.653 0 0 1 -32.247 -4e-7 27.289 15.653 0 0 1 -9.7328 -17.634"/>
    <path style="image-rendering:auto" transform="matrix(.31186 0 0 .31186 69.26 20.062)" d="m18.022-23.984a22.672 13.005 0 0 1 -2.7194 17.487 22.672 13.005 0 0 1 -30.606 -3e-7 22.672 13.005 0 0 1 -2.7194 -17.487"/>
    <ellipse style="image-rendering:auto" rx="16.219" transform="matrix(.31186 0 0 .31186 69.26 20.062)" ry="9.304" cy="-20.673" cx="0"/>
    <ellipse style="image-rendering:auto" rx="8.452" transform="matrix(.31186 0 0 .31186 69.26 20.062)" ry="4.8489" cy="-23.579" cx="0"/>
    <circle style="image-rendering:auto" transform="matrix(.31186 0 0 .31186 69.26 20.062)" cy="0" cx="0" r="30"/>
   </g>
  </g>
 </g>
</svg>
